<?xml version="1.0" standalone="no"?>
<!DOCTYPE svg PUBLIC "-//W3C//DTD SVG 20010904//EN"
 "http://www.w3.org/TR/2001/REC-SVG-20010904/DTD/svg10.dtd">
<svg version="1.0" xmlns="http://www.w3.org/2000/svg"
 width="700.000000pt" height="700.000000pt" viewBox="0 0 700.000000 700.000000"
 preserveAspectRatio="xMidYMid meet">
<metadata>
Created by potrace 1.14, written by Peter Selinger 2001-2017
</metadata>
<g transform="translate(0.000000,700.000000) scale(0.100000,-0.100000)"
fill="#000000" stroke="none">
<path d="M830 6558 c-180 -20 -307 -124 -372 -305 l-21 -58 -1 -2868 c0 -1578
2 -2874 6 -2880 7 -12 6081 -18 6108 -6 13 6 15 212 14 1776 -1 1308 -5 1781
-13 1818 -39 164 -182 303 -341 331 -25 4 -349 8 -720 8 l-675 1 -2 906 c-1
993 1 955 -62 1064 -56 98 -166 180 -276 206 -56 13 -3529 20 -3645 7z m3540
-439 c4 -6 5 -5221 1 -5239 -2 -10 -3491 -5 -3492 5 -3 18 -5 5230 -3 5235 3
8 3488 7 3494 -1z m1755 -3712 c0 -840 -2 -1528 -5 -1528 -3 -1 -296 -2 -653
-3 -568 -1 -648 1 -652 14 -2 8 -4 697 -3 1531 l0 1516 657 -1 656 -1 0 -1528z"/>
<path d="M1750 4812 l0 -437 218 0 217 0 2 438 2 437 -220 0 -219 0 0 -438z"/>
<path d="M3064 4813 l1 -438 215 0 215 0 3 438 2 437 -218 0 -219 0 1 -437z"/>
<path d="M1750 3500 l0 -438 219 1 220 1 -2 435 -2 436 -217 2 -218 1 0 -438z"/>
<path d="M3064 3501 l1 -436 218 -2 217 -1 0 438 0 438 -218 -1 -219 0 1 -436z"/>
<path d="M1750 2188 l0 -438 220 0 219 0 0 435 c0 239 -3 436 -7 436 -4 1
-103 3 -219 3 l-213 2 0 -438z"/>
<path d="M3065 2620 c-1 -3 -2 -200 -2 -437 l-1 -433 219 0 219 0 -2 438 -3
437 -213 0 c-118 0 -215 -2 -217 -5z"/>
</g>
</svg>
